# xmcd CD database file
#
# Track frame offsets:
#	150
#	26070
#	45607
#	59467
#	72878
#	88986
#	112039
#	127412
#	143352
#	160387
#	173187
#	189155
#	212038
#	228973
#	252300
#
# Disc length: 3703 seconds
#
# Revision: 0
# Processed by: cddbd v1.5.2PL0 Copyright (c) Steve Scherf et al.
# Submitted via: CDex 1.51
#
DISCID=da0e750f
DTITLE=Norah Jones - New Orleans
DYEAR=2002
DGENRE=Jazz
TTITLE0=cold, cold heart
TTITLE1=nightingale
TTITLE2=one flight down
TTITLE3=seven years
TTITLE4=feelin' the same way
TTITLE5=comes love
TTITLE6=something is calling you
TTITLE7=come away with me
TTITLE8=what am i to you
TTITLE9=painter song
TTITLE10=lonestart
TTITLE11=i've got see you again
TTITLE12=bessie smith
TTITLE13=don't know why
TTITLE14=tennessee waltz
EXTD=YEAR: 2002
EXTT0=
EXTT1=
EXTT2=
EXTT3=
EXTT4=
EXTT5=
EXTT6=
EXTT7=
EXTT8=
EXTT9=
EXTT10=
EXTT11=
EXTT12=
EXTT13=
EXTT14=
PLAYORDER=
